<svg xmlns="http://www.w3.org/2000/svg" xmlns:xlink="http://www.w3.org/1999/xlink" viewBox="0 0 2560 1440"><defs><style>.cls-1{fill:url(#radial-gradient);}.cls-2{fill:#680d2d;}.cls-12,.cls-13,.cls-14,.cls-15,.cls-16,.cls-2,.cls-3,.cls-5,.cls-6{fill-rule:evenodd;}.cls-3{fill:#bd3a46;}.cls-4{fill:#d68700;}.cls-5{fill:#28b6c2;}.cls-6{fill:#1489b6;}.cls-10,.cls-11,.cls-7,.cls-8,.cls-9{fill:#fff;stroke-miterlimit:10;stroke-width:8px;}.cls-7{stroke:#680d2d;}.cls-8{stroke:#bd3a46;}.cls-9{stroke:#d68700;}.cls-10{stroke:#28b6c2;}.cls-11{stroke:#1489b6;}.cls-12,.cls-17{fill:#8b123c;}.cls-13,.cls-18{fill:#e54756;}.cls-14,.cls-19{fill:#ffac1f;}.cls-15,.cls-20{fill:#5cd3dd;}.cls-16,.cls-21{fill:#27b2e7;}.cls-17,.cls-18,.cls-19,.cls-20,.cls-21{font-size:87.17px;}.cls-17,.cls-18,.cls-19,.cls-20,.cls-21,.cls-22,.cls-24{font-family:RobotoCondensed-Bold, Roboto Condensed;font-weight:700;}.cls-17,.cls-18,.cls-19,.cls-20{letter-spacing:0.02em;}.cls-21{letter-spacing:0.03em;}.cls-22{font-size:62.45px;}.cls-22,.cls-24{fill:#1c2835;}.cls-23{font-size:28.82px;fill:#aab2bc;font-family:RobotoCondensed-Regular, Roboto Condensed;}.cls-24{font-size:129px;letter-spacing:0.01em;}</style><radialGradient id="radial-gradient" cx="1343.07" cy="-8.33" r="2544.37" gradientUnits="userSpaceOnUse"><stop offset="0" stop-color="#fff"/><stop offset="1" stop-color="#e7e3e8"/></radialGradient></defs><title>sales-funnel-vector-infographic</title><g id="Background"><rect class="cls-1" width="2560" height="1440"/></g><g id="Design"><path class="cls-2" d="M1567.29,1233.21,1567,1074l356.47,27.83-64.88,131.38Z"/><polygon class="cls-3" points="1474.67 1100.86 1946.11 1101.83 2026.41 924.22 1474.67 913.22 1474.67 1100.86"/><rect class="cls-4" x="1392.08" y="745.53" width="659.93" height="177.6"/><polygon class="cls-5" points="1299.72 745.62 2149.05 746.61 2149.05 565 1299.72 565 1299.72 745.62"/><polygon class="cls-6" points="1214.24 568.04 2244.87 568.46 2310.16 391.4 1214.24 391.4 1214.24 568.04"/><path class="cls-7" d="M1567.14,1094.19h0a91,91,0,0,0-91,91h0a91,91,0,0,0,91,91h0a91,91,0,0,0,91-91h0A91,91,0,0,0,1567.14,1094.19Z"/><path class="cls-8" d="M1477.79,918h0a91,91,0,0,0-91,91h0a91,91,0,0,0,91,91h0a91,91,0,0,0,91-91h0A91,91,0,0,0,1477.79,918Z"/><path class="cls-9" d="M1391.71,741.71h0a91,91,0,0,0-91,91h0a91,91,0,0,0,91,91h0a91,91,0,0,0,91-91h0A91,91,0,0,0,1391.71,741.71Z"/><path class="cls-10" d="M1305.63,565.47h0a91,91,0,0,0-91,91h0a91,91,0,0,0,91,91h0a91,91,0,0,0,91-91h0A91,91,0,0,0,1305.63,565.47Z"/><path class="cls-11" d="M1219.55,389.22h0a91,91,0,0,0-91,91h0a91,91,0,0,0,91,91h0a91,91,0,0,0,91-91h0A91,91,0,0,0,1219.55,389.22Z"/><path class="cls-12" d="M1443.47,385.31h0c2.1-27.23,46.08-58.66,115.2-83.8,433.56,618,398,733.23,379.11,770.94l-79.6,163.4L1443.47,387.4Z"/><path class="cls-13" d="M1946.48,1101.83c20.9-41.94-72.16-214.38-389.74-799.42,43.87-14.68,98.2-29.36,158.79-37.74C1868.05,476.46,2100,776.32,2037.29,900Z"/><path class="cls-14" d="M2050.13,924.22c16.91-44.07-79.32-221.4-335.05-657.88,46.49-8.4,99.33-10.5,152.17-10.5h23.24c101.45,174.18,200.79,306.38,266.3,442.79Z"/><path class="cls-15" d="M2148.84,747.05c6.37-29.16-40.16-117.62-258.34-491.21a947.32,947.32,0,0,1,197.2,21c56.65,98.64,117.49,167.9,163.43,256.49Z"/><path class="cls-16" d="M2244.87,568.46c6.28-14.66-19.83-75.74-160.15-291.45,140.32,29.32,236.66,79.58,240.85,121.47h0v4.19Z"/><path class="cls-16" d="M265.17,467.72h0A30.74,30.74,0,0,0,295.91,437h0a30.74,30.74,0,0,0-30.74-30.74h0A30.74,30.74,0,0,0,234.43,437h0A30.74,30.74,0,0,0,265.17,467.72Z"/><path class="cls-12" d="M265.17,1284.57h0a30.74,30.74,0,0,0,30.74-30.75h0a30.74,30.74,0,0,0-30.74-30.74h0a30.74,30.74,0,0,0-30.74,30.74h0A30.74,30.74,0,0,0,265.17,1284.57Z"/><path class="cls-13" d="M265.17,1080.36h0a30.74,30.74,0,0,0,30.74-30.75h0a30.74,30.74,0,0,0-30.74-30.74h0a30.74,30.74,0,0,0-30.74,30.74h0A30.74,30.74,0,0,0,265.17,1080.36Z"/><path class="cls-14" d="M265.17,876.15h0a30.74,30.74,0,0,0,30.74-30.75h0a30.74,30.74,0,0,0-30.74-30.74h0a30.74,30.74,0,0,0-30.74,30.74h0A30.74,30.74,0,0,0,265.17,876.15Z"/><path class="cls-15" d="M265.17,671.93h0a30.74,30.74,0,0,0,30.74-30.74h0a30.74,30.74,0,0,0-30.74-30.74h0a30.74,30.74,0,0,0-30.74,30.74h0A30.74,30.74,0,0,0,265.17,671.93Z"/></g><g id="Text"><text class="cls-17" transform="translate(1544.01 1211.75)">5</text><text class="cls-18" transform="translate(1454.65 1036.14)">4</text><text class="cls-19" transform="translate(1368.58 860.63)">3</text><text class="cls-20" transform="translate(1282.5 682.26)">2</text><text class="cls-21" transform="translate(1196.42 505.74)">1</text><text class="cls-22" transform="translate(343.12 1271.08)">RETARGETING STEP</text><text class="cls-23" transform="translate(343.12 1144.13)">erat dolor, at amet lorum ipsum dolor. </text><text class="cls-23" transform="translate(343.12 1106.62)">Mauris, cras pharetra proin egestas arcu </text><text class="cls-22" transform="translate(343.12 1067.17)">ACTION</text><text class="cls-23" transform="translate(343.12 940.22)">erat dolor, at amet lorum ipsum dolor. </text><text class="cls-23" transform="translate(343.12 902.71)">Mauris, cras pharetra proin egestas arcu </text><text class="cls-22" transform="translate(343.12 863.25)">DESIRE</text><text class="cls-23" transform="translate(343.12 736.3)">erat dolor, at amet lorum ipsum dolor. </text><text class="cls-23" transform="translate(343.12 698.8)">Mauris, cras pharetra proin egestas arcu </text><text class="cls-22" transform="translate(343.12 659.34)">INTEREST </text><text class="cls-23" transform="translate(343.12 532.39)">erat dolor, at amet lorum ipsum dolor. </text><text class="cls-23" transform="translate(343.12 494.88)">Mauris, cras pharetra proin egestas arcu </text><text class="cls-22" transform="translate(343.12 455.42)">AWARENESS </text><text class="cls-24" transform="translate(234.43 248.14)">SALES FUNNEL</text></g></svg>